HIERARCHY
ROOT hip
{
  OFFSET 0 0 0
  CHANNELS 6 Xposition Yposition Zposition Zrotation Yrotation Xrotation
  JOINT abdomen
  {
    OFFSET 0 20.6881 -0.73152
    CHANNELS 3 Zrotation Xrotation Yrotation
    JOINT chest
    {
      OFFSET 0 11.7043 -0.48768
      CHANNELS 3 Zrotation Xrotation Yrotation
      JOINT neck
      {
        OFFSET 0 22.1894 -2.19456
        CHANNELS 3 Zrotation Xrotation Yrotation
        JOINT head
        {
          OFFSET -0.24384 7.07133 1.2192
          CHANNELS 3 Zrotation Xrotation Yrotation
          JOINT leftEye
          {
            OFFSET 4.14528 8.04674 8.04672
            CHANNELS 3 Zrotation Xrotation Yrotation
            End Site
            {
              OFFSET 1 0 0
            }
          }
          JOINT rightEye
          {
            OFFSET -3.6576 8.04674 8.04672
            CHANNELS 3 Zrotation Xrotation Yrotation
            End Site
            {
              OFFSET 1 0 0
            }
          }
        }
      }
      JOINT rCollar
      {
        OFFSET -2.68224 19.2634 -4.8768
        CHANNELS 3 Zrotation Xrotation Yrotation
        JOINT rShldr
        {
          OFFSET -8.77824 -1.95073 1.46304
          CHANNELS 3 Zrotation Xrotation Yrotation
          JOINT rForeArm
          {
            OFFSET -28.1742 -1.7115 0.48768
            CHANNELS 3 Zrotation Xrotation Yrotation
            JOINT rHand
            {
              OFFSET -22.5879 0.773209 7.07136
              CHANNELS 3 Zrotation Xrotation Yrotation
              JOINT rThumb1
              {
                OFFSET -1.2192 -0.487915 3.41376
                CHANNELS 3 Zrotation Xrotation Yrotation
                JOINT rThumb2
                {
                  OFFSET -3.37035 -0.52449 3.41376
                  CHANNELS 3 Zrotation Xrotation Yrotation
                  End Site
                  {
                    OFFSET -1.78271 -1.18214 1.43049
                  }
                }
              }
              JOINT rIndex1
              {
                OFFSET -7.75947 0.938293 5.60832
                CHANNELS 3 Zrotation Xrotation Yrotation
                JOINT rIndex2
                {
                  OFFSET -2.54057 -0.884171 1.56538
                  CHANNELS 3 Zrotation Xrotation Yrotation
                  End Site
                  {
                    OFFSET -1.62519 -0.234802 1.16502
                  }
                }
              }
              JOINT rMid1
              {
                OFFSET -8.24714 1.18213 3.41376
                CHANNELS 3 Zrotation Xrotation Yrotation
                JOINT rMid2
                {
                  OFFSET -3.10165 -0.590103 1.0647
                  CHANNELS 3 Zrotation Xrotation Yrotation
                  End Site
                  {
                    OFFSET -2.48547 -0.328903 0.83742
                  }
                }
              }
              JOINT rRing1
              {
                OFFSET -8.82822 0.546677 1.51678
                CHANNELS 3 Zrotation Xrotation Yrotation
                JOINT rRing2
                {
                  OFFSET -2.60934 -0.819778 -0.0198488
                  CHANNELS 3 Zrotation Xrotation Yrotation
                  End Site
                  {
                    OFFSET -2.33842 -0.294052 0.168128
                  }
                }
              }
              JOINT rPinky1
              {
                OFFSET -8.27202 -0.0477905 -0.4584
                CHANNELS 3 Zrotation Xrotation Yrotation
                JOINT rPinky2
                {
                  OFFSET -1.82734 -0.647385 -0.700984
                  CHANNELS 3 Zrotation Xrotation Yrotation
                  End Site
                  {
                    OFFSET -1.69225 -0.51767 -0.607171
                  }
                }
              }
            }
          }
        }
      }
      JOINT lCollar
      {
        OFFSET 2.68224 19.2634 -4.8768
        CHANNELS 3 Zrotation Xrotation Yrotation
        JOINT lShldr
        {
          OFFSET 8.77824 -1.95073 1.46304
          CHANNELS 3 Zrotation Xrotation Yrotation
          JOINT lForeArm
          {
            OFFSET 28.1742 -1.7115 0.48768
            CHANNELS 3 Zrotation Xrotation Yrotation
            JOINT lHand
            {
              OFFSET 22.5879 0.773209 7.07136
              CHANNELS 3 Zrotation Xrotation Yrotation
              JOINT lThumb1
              {
                OFFSET 1.2192 -0.487915 3.41376
                CHANNELS 3 Zrotation Xrotation Yrotation
                JOINT lThumb2
                {
                  OFFSET 3.37035 -0.52449 3.41376
                  CHANNELS 3 Zrotation Xrotation Yrotation
                  End Site
                  {
                    OFFSET 1.78271 -1.18214 1.43049
                  }
                }
              }
              JOINT lIndex1
              {
                OFFSET 7.75947 0.938293 5.60832
                CHANNELS 3 Zrotation Xrotation Yrotation
                JOINT lIndex2
                {
                  OFFSET 2.54057 -0.884171 1.56538
                  CHANNELS 3 Zrotation Xrotation Yrotation
                  End Site
                  {
                    OFFSET 1.62519 -0.234802 1.16502
                  }
                }
              }
              JOINT lMid1
              {
                OFFSET 8.24714 1.18213 3.41376
                CHANNELS 3 Zrotation Xrotation Yrotation
                JOINT lMid2
                {
                  OFFSET 3.10165 -0.590103 1.0647
                  CHANNELS 3 Zrotation Xrotation Yrotation
                  End Site
                  {
                    OFFSET 2.48547 -0.328903 0.83742
                  }
                }
              }
              JOINT lRing1
              {
                OFFSET 8.82822 0.546677 1.51678
                CHANNELS 3 Zrotation Xrotation Yrotation
                JOINT lRing2
                {
                  OFFSET 2.60934 -0.819778 -0.0198488
                  CHANNELS 3 Zrotation Xrotation Yrotation
                  End Site
                  {
                    OFFSET 2.33842 -0.294052 0.168128
                  }
                }
              }
              JOINT lPinky1
              {
                OFFSET 8.27202 -0.0477905 -0.4584
                CHANNELS 3 Zrotation Xrotation Yrotation
                JOINT lPinky2
                {
                  OFFSET 1.82734 -0.647385 -0.700984
                  CHANNELS 3 Zrotation Xrotation Yrotation
                  End Site
                  {
                    OFFSET 1.69225 -0.51767 -0.607171
                  }
                }
              }
            }
          }
        }
      }
    }
  }
  JOINT rButtock
  {
    OFFSET -8.77824 4.35084 1.2192
    CHANNELS 3 Zrotation Xrotation Yrotation
    JOINT rThigh
    {
      OFFSET 0 -1.70687 -2.19456
      CHANNELS 3 Zrotation Xrotation Yrotation
      JOINT rShin
      {
        OFFSET 0 -36.8199 0.73152
        CHANNELS 3 Zrotation Xrotation Yrotation
        JOINT rFoot
        {
          OFFSET 0.73152 -45.1104 -5.12064
          CHANNELS 3 Zrotation Xrotation Yrotation
          End Site
          {
            OFFSET -1.1221 -3.69964 12.103
          }
        }
      }
    }
  }
  JOINT lButtock
  {
    OFFSET 8.77824 4.35084 1.2192
    CHANNELS 3 Zrotation Xrotation Yrotation
    JOINT lThigh
    {
      OFFSET 0 -1.70687 -2.19456
      CHANNELS 3 Zrotation Xrotation Yrotation
      JOINT lShin
      {
        OFFSET 0 -36.8199 0.73152
        CHANNELS 3 Zrotation Xrotation Yrotation
        JOINT lFoot
        {
          OFFSET -0.73152 -45.1104 -5.12064
          CHANNELS 3 Zrotation Xrotation Yrotation
          End Site
          {
            OFFSET 1.1221 -3.69964 12.103
          }
        }
      }
    }
  }
}
MOTION
Frames:	4
Frame Time:	0.00833333
25.587 83.9933 -25.562 0.0 0.0 0.0 -1.70623 -0.00254491 -0.0464506 -0.470566 0.00242758 -0.0814856 5.46776e-14 0.0 -5.2181e-16 1.64013e-13 3.18055e-15 -1.51573e-15 -0.0 0.0 0.0 -0.0 0.0 0.0 2.73829e-14 1.23464e-16 -9.93923e-17 5.75775e-13 2.82026e-15 -2.5842e-15 9.89083e-12 -2.87184e-12 -2.00375e-13 1.13243e-10 3.42533e-12 -8.55569e-13 2.67118e-10 1.19513e-12 -2.29e-12 4.61292e-10 2.05782e-12 -3.97092e-12 2.67121e-10 1.1935e-12 -2.29318e-12 7.73091 5.47488 0.417314 2.67117e-10 1.1946e-12 -2.28682e-12 2.90554 0.965183 0.102902 2.67121e-10 1.1947e-12 -2.29238e-12 10.2786 0.731801 0.0259123 2.67105e-10 1.19907e-12 -2.28364e-12 2.22167 -0.733487 -0.20892 2.72847e-14 1.23464e-16 -3.97569e-16 5.71949e-13 2.62147e-15 -4.57205e-15 9.89843e-12 3.04399e-12 -1.78111e-13 1.13253e-10 -2.494e-12 -8.6193e-13 2.67155e-10 1.19134e-12 -2.28364e-12 4.61387e-10 2.05782e-12 -3.94468e-12 2.67153e-10 1.18833e-12 -2.28046e-12 -7.73091 5.47488 -0.417314 2.67155e-10 1.19102e-12 -2.28364e-12 -2.90554 0.965183 -0.102902 2.67152e-10 1.19132e-12 -2.28205e-12 -10.2786 0.731801 -0.0259123 2.67166e-10 1.1947e-12 -2.29318e-12 -2.22167 -0.733487 0.20892 -2.03217e-16 0.0 -3.88251e-19 -0.81041 -1.92439 -0.00361642 -0.0090168 -2.07859 -0.0743249 -0.484071 3.99775 0.136168 2.03217e-16 0.0 3.88251e-19 -1.78629 -6.85424 0.170469 -0.00323941 6.85143 -0.0863979 0.512833 -0.00233376 -0.0581699
25.4897 81.8952 -27.29 3.1341 -11.7521 8.3887 -3.87311 2.07815 -1.57793 1.1043 -0.48649 -0.533145 -3.4744 -0.65013 -1.93764 3.07047 -0.187772 -2.69371 -0.0 0.0 0.0 -0.0 0.0 0.0 8.21802e-14 6.15998e-14 -7.2676e-14 16.4036 3.01226 11.6629 0.526693 16.6813 -40.5421 0.00139424 0.828438 0.116385 1.84711e-10 5.17351e-10 4.77647e-10 3.20142e-10 8.96593e-10 8.26758e-10 1.84715e-10 5.17352e-10 4.77643e-10 7.73091 5.47488 0.417314 1.84709e-10 5.17351e-10 4.7765e-10 2.90554 0.965183 0.102902 1.84714e-10 5.17352e-10 4.77646e-10 10.2786 0.731801 0.0259123 1.84699e-10 5.17354e-10 4.77654e-10 2.22167 -0.733487 -0.20892 8.2092e-14 6.16025e-14 -7.29334e-14 -19.1738 7.79485 -13.3572 27.571 -25.0571 -13.4934 -0.000654436 0.567568 -0.0797523 -6.63735e-11 -3.0338e-11 7.0652e-10 -1.15374e-10 -4.96652e-11 1.225e-09 -6.63743e-11 -3.03397e-11 7.06525e-10 -7.73091 5.47488 -0.417314 -6.63726e-11 -3.0338e-11 7.06521e-10 -2.90554 0.965183 -0.102902 -6.6375e-11 -3.03375e-11 7.06521e-10 -10.2786 0.731801 -0.0259123 -6.63648e-11 -3.03351e-11 7.0651e-10 -2.22167 -0.733487 0.20892 -2.03217e-16 0.0 -3.88251e-19 -4.84713 -11.4916 0.0498197 0.0053936 10.3114 0.100663 -0.504919 0.328076 0.0945906 2.03217e-16 0.0 3.88251e-19 -1.77248 -11.1953 0.328323 -0.0440167 15.3432 -0.278491 0.680683 -5.15632 1.14907
25.4968 81.8932 -27.289 3.1687 -11.7758 8.3907 -6.04096 4.27202 -3.20563 2.76158 -1.00284 -1.01125 -7.19825 -1.33187 -3.98832 6.29859 -0.391588 -5.54335 -0.0 0.0 0.0 -0.0 0.0 0.0 1.43482e-13 1.2777e-13 -1.51263e-13 32.4442 5.7792 24.0891 16.4664 7.50242 -82.2364 -0.000795087 1.70612 0.239772 9.28909e-11 1.08389e-09 1.00916e-09 1.62819e-10 1.87847e-09 1.74679e-09 9.28962e-11 1.08389e-09 1.00915e-09 7.73091 5.47488 0.417314 9.28894e-11 1.08389e-09 1.00916e-09 2.90554 0.965183 0.102902 9.28963e-11 1.08389e-09 1.00916e-09 10.2786 0.731801 0.0259123 9.2882e-11 1.08389e-09 1.00917e-09 2.22167 -0.733487 -0.20892 1.43405e-13 1.27776e-13 -1.51477e-13 -35.5326 14.6028 -28.2096 39.431 -46.1781 -37.7868 0.000373107 1.16886 -0.16427 -4.27163e-10 -6.14781e-11 1.48648e-09 -7.39263e-10 -1.00478e-10 2.5773e-09 -4.27163e-10 -6.14786e-11 1.48649e-09 -7.73091 5.47488 -0.417314 -4.27161e-10 -6.14779e-11 1.48649e-09 -2.90554 0.965183 -0.102902 -4.27163e-10 -6.14771e-11 1.48648e-09 -10.2786 0.731801 -0.0259123 -4.27156e-10 -6.14758e-11 1.48647e-09 -2.22167 -0.733487 0.20892 -2.03217e-16 0.0 -3.88251e-19 -9.08796 -21.5966 0.122208 -0.0672303 23.3999 0.307535 -0.53466 -3.56553 0.0402578 2.03217e-16 0.0 3.88251e-19 -1.72892 -15.7853 0.504443 -0.019011 24.324 -0.506703 1.09794 -10.5951 2.45768
25.5085 81.8933 -27.2893 3.2214 -11.7694 8.3963 -7.87187 6.22138 -4.66532 4.2309 -1.46393 -1.43687 -10.5549 -1.94147 -5.8159 9.15864 -0.55834 -8.08147 -0.0 0.0 0.0 -0.0 0.0 0.0 1.91775e-13 1.84552e-13 -2.17829e-13 45.7601 7.55303 35.2909 22.4009 -22.9047 -101.594 -0.00592219 2.48527 0.349448 1.98952e-11 1.54966e-09 1.43752e-09 3.78425e-11 2.68566e-09 2.48821e-09 1.99018e-11 1.54967e-09 1.43751e-09 7.73091 5.47488 0.417314 1.98937e-11 1.54966e-09 1.43752e-09 2.90554 0.965183 0.102902 1.99021e-11 1.54967e-09 1.43752e-09 10.2786 0.731801 0.0259123 1.98884e-11 1.54966e-09 1.43753e-09 2.22167 -0.733487 -0.20892 1.91707e-13 1.8456e-13 -2.18005e-13 -47.1624 18.2577 -42.2645 31.2331 -51.4679 -73.1942 0.00277859 1.70269 -0.239351 -7.3343e-10 -9.33967e-11 2.12413e-09 -1.2689e-09 -1.53111e-10 3.68288e-09 -7.33429e-10 -9.33958e-11 2.12414e-09 -7.73091 5.47488 -0.417314 -7.33428e-10 -9.33961e-11 2.12413e-09 -2.90554 0.965183 -0.102902 -7.33428e-10 -9.33952e-11 2.12413e-09 -10.2786 0.731801 -0.0259123 -7.33426e-10 -9.33947e-11 2.12412e-09 -2.22167 -0.733487 0.20892 -2.03217e-16 0.0 -3.88251e-19 -12.8596 -30.6258 0.178605 -0.230235 35.0903 0.54466 -0.56249 -7.01128 0.0121848 2.03217e-16 0.0 3.88251e-19 -1.66844 -19.8766 0.667491 0.0752651 32.3251 -0.750435 1.68802 -15.437 3.68263
